{
  "accessors": [
    {
      "bufferView": 2,
      "componentType": 5126,
      "count": 2807,
      "max": [
        1.685699462890625,
        0.42781510949134827,
        1.282346487045288
      ],
      "min": [
        -1.6865590810775757,
        -0.23744970560073853,
        -0.7792608141899109
      ],
      "type": "VEC3"
    },
    {
      "bufferView": 2,
      "byteOffset": 33684,
      "componentType": 5126,
      "count": 2807,
      "max": [
        0.9992064833641052,
        1.0,
        1.0
      ],
      "min": [
        -0.9992064833641052,
        -1.0,
        -0.999970555305481
      ],
      "type": "VEC3"
    },
    {
      "bufferView": 1,
      "componentType": 5126,
      "count": 2807,
      "max": [
        0.9881024956703186,
        0.9934617280960083
      ],
      "min": [
        0.012859746813774109,
        0.012655551545321941
      ],
      "type": "VEC2"
    },
    {
      "bufferView": 0,
      "componentType": 5125,
      "count": 7722,
      "type": "SCALAR"
    }
  ],
  "asset": {
    "extras": {
      "author": "Macwithav (https://sketchfab.com/Macwithav)",
      "license": "CC-BY-4.0 (http://creativecommons.org/licenses/by/4.0/)",
      "source": "https://sketchfab.com/3d-models/arwing-starfighter-bd4424c975064f9ab7b2d10107b50ea8",
      "title": "Arwing Starfighter"
    },
    "generator": "Sketchfab-13.17.0",
    "version": "2.0"
  },
  "bufferViews": [
    {
      "buffer": 0,
      "byteLength": 30888,
      "name": "floatBufferViews",
      "target": 34963
    },
    {
      "buffer": 0,
      "byteLength": 22456,
      "byteOffset": 30888,
      "byteStride": 8,
      "name": "floatBufferViews",
      "target": 34962
    },
    {
      "buffer": 0,
      "byteLength": 67368,
      "byteOffset": 53344,
      "byteStride": 12,
      "name": "floatBufferViews",
      "target": 34962
    }
  ],
  "buffers": [
    {
      "byteLength": 120712,
      "uri": "scene.bin"
    }
  ],
  "images": [
    {
      "uri": "textures/arwingpet_baseColor.png"
    }
  ],
  "materials": [
    {
      "doubleSided": true,
      "name": "arwingpet",
      "pbrMetallicRoughness": {
        "baseColorTexture": {
          "index": 0
        },
        "metallicFactor": 0.3858612805,
        "roughnessFactor": 0.5226753049
      }
    }
  ],
  "meshes": [
    {
      "name": "polySurface39_arwingpet_0",
      "primitives": [
        {
          "attributes": {
            "NORMAL": 1,
            "POSITION": 0,
            "TEXCOORD_0": 2
          },
          "indices": 3,
          "material": 0,
          "mode": 4
        }
      ]
    }
  ],
  "nodes": [
    {
      "children": [
        1
      ],
      "matrix": [
        0.9979761242866516,
        0.0,
        0.0,
        0.0,
        0.0,
        2.215952142418435e-16,
        -0.9979761242866516,
        0.0,
        0.0,
        0.9979761242866516,
        2.215952142418435e-16,
        0.0,
        0.0,
        0.0,
        0.0,
        1.0
      ],
      "name": "Sketchfab_model"
    },
    {
      "children": [
        2
      ],
      "matrix": [
        1.0,
        0.0,
        0.0,
        0.0,
        0.0,
        0.0,
        1.0,
        0.0,
        0.0,
        -1.0,
        0.0,
        0.0,
        0.0,
        0.0,
        0.0,
        1.0
      ],
      "name": "arwingpet.fbx"
    },
    {
      "children": [
        3
      ],
      "name": "RootNode"
    },
    {
      "children": [
        4
      ],
      "matrix": [
        4.772854328155518,
        0.0,
        0.0,
        0.0,
        0.0,
        4.772854328155518,
        0.0,
        0.0,
        0.0,
        0.0,
        4.772854328155518,
        0.0,
        0.0,
        0.0,
        0.0,
        1.0
      ],
      "name": "polySurface39"
    },
    {
      "mesh": 0,
      "name": "polySurface39_arwingpet_0"
    }
  ],
  "samplers": [
    {
      "magFilter": 9729,
      "minFilter": 9987,
      "wrapS": 10497,
      "wrapT": 10497
    }
  ],
  "scene": 0,
  "scenes": [
    {
      "name": "Sketchfab_Scene",
      "nodes": [
        0
      ]
    }
  ],
  "textures": [
    {
      "sampler": 0,
      "source": 0
    }
  ]
}
