<svg xmlns="http://www.w3.org/2000/svg" xmlns:xlink="http://www.w3.org/1999/xlink" width="500" zoomAndPan="magnify" viewBox="0 0 375 374.999991" height="500" preserveAspectRatio="xMidYMid meet" version="1.0"><defs><g/></defs><g fill="#07beb8" fill-opacity="1"><g transform="translate(13.723184, 283.501045)"><g><path d="M 88.09375 -241.84375 C 81.039062 -241.84375 76.234375 -240.347656 73.671875 -237.359375 C 71.109375 -234.367188 69.828125 -228.816406 69.828125 -220.703125 L 69.828125 -178.109375 L 105.0625 -178.109375 L 105.0625 -144.78125 L 69.828125 -144.78125 L 69.828125 0 L 33.3125 0 L 33.3125 -144.78125 L 11.53125 -144.78125 L 11.53125 -178.109375 L 33.3125 -178.109375 L 33.3125 -231.59375 C 33.3125 -246.757812 37.101562 -257.8125 44.6875 -264.75 C 52.269531 -271.6875 64.390625 -275.15625 81.046875 -275.15625 C 88.515625 -275.15625 96.519531 -274.195312 105.0625 -272.28125 L 105.0625 -239.921875 C 99.9375 -241.203125 94.28125 -241.84375 88.09375 -241.84375 Z M 88.09375 -241.84375 "/></g></g></g><g fill="#07beb8" fill-opacity="1"><g transform="translate(150.822215, 283.501045)"><g><path d="M 183.234375 -178.109375 L 183.234375 74.953125 L 146.703125 74.953125 L 146.703125 -15.0625 C 130.265625 -1.382812 113.394531 5.453125 96.09375 5.453125 C 71.96875 5.453125 52.644531 -2.609375 38.125 -18.734375 C 23.601562 -34.859375 16.34375 -58.296875 16.34375 -89.046875 C 16.34375 -119.585938 23.601562 -142.921875 38.125 -159.046875 C 52.644531 -175.171875 71.96875 -183.234375 96.09375 -183.234375 C 113.394531 -183.234375 130.265625 -176.398438 146.703125 -162.734375 L 146.703125 -178.109375 Z M 102.1875 -27.875 C 116.914062 -27.875 131.753906 -33.851562 146.703125 -45.8125 L 146.703125 -131.96875 C 131.753906 -143.925781 116.914062 -149.90625 102.1875 -149.90625 C 86.382812 -149.90625 74.476562 -144.726562 66.46875 -134.375 C 58.457031 -124.019531 54.453125 -108.910156 54.453125 -89.046875 C 54.453125 -68.972656 58.457031 -53.757812 66.46875 -43.40625 C 74.476562 -33.050781 86.382812 -27.875 102.1875 -27.875 Z M 102.1875 -27.875 "/></g></g></g></svg>