<svg xmlns="http://www.w3.org/2000/svg" xmlns:xlink="http://www.w3.org/1999/xlink" width="500" zoomAndPan="magnify" viewBox="0 0 375 374.999991" height="500" preserveAspectRatio="xMidYMid meet" version="1.0"><defs><clipPath id="d245e39c77"><path d="M 101.550781 76.925781 L 281.746094 76.925781 L 281.746094 298.660156 L 101.550781 298.660156 Z M 101.550781 76.925781 " clip-rule="nonzero"/></clipPath><clipPath id="f18e5ee7c4"><path d="M 7 8.542969 L 366 8.542969 L 366 366.898438 L 7 366.898438 Z M 7 8.542969 " clip-rule="nonzero"/></clipPath></defs><g clip-path="url(#d245e39c77)"><path fill="#07beb8" d="M 149.996094 98.023438 C 145.535156 98.023438 142.496094 98.972656 140.875 100.867188 C 139.253906 102.757812 138.441406 106.273438 138.441406 111.414062 L 138.441406 138.394531 L 160.738281 138.394531 L 160.738281 159.492188 L 138.441406 159.492188 L 138.441406 251.1875 L 115.335938 251.1875 L 115.335938 159.492188 L 101.550781 159.492188 L 101.550781 138.394531 L 115.335938 138.394531 L 115.335938 104.515625 C 115.335938 94.914062 117.742188 87.910156 122.550781 83.5 C 127.335938 79.117188 134.996094 76.925781 145.535156 76.925781 C 150.265625 76.925781 155.332031 77.535156 160.738281 78.753906 L 160.738281 99.242188 C 157.496094 98.429688 153.914062 98.023438 149.996094 98.023438 Z M 258.640625 138.394531 L 281.746094 138.394531 L 281.746094 298.660156 L 258.640625 298.660156 L 258.640625 241.652344 C 248.234375 250.308594 237.558594 254.636719 226.613281 254.636719 C 211.34375 254.636719 199.113281 249.523438 189.925781 239.300781 C 180.738281 229.101562 176.144531 214.265625 176.144531 194.792969 C 176.144531 175.453125 180.738281 160.671875 189.925781 150.445312 C 199.113281 140.25 211.34375 135.148438 226.613281 135.148438 C 237.558594 135.148438 248.234375 139.476562 258.640625 148.132812 Z M 230.464844 233.539062 C 239.789062 233.539062 249.179688 229.753906 258.640625 222.179688 L 258.640625 167.609375 C 249.179688 160.035156 239.789062 156.246094 230.464844 156.246094 C 220.464844 156.246094 212.925781 159.519531 207.84375 166.066406 C 202.789062 172.640625 200.261719 182.214844 200.261719 194.792969 C 200.261719 207.503906 202.789062 217.132812 207.84375 223.679688 C 212.925781 230.253906 220.464844 233.539062 230.464844 233.539062 Z M 230.464844 233.539062 " fill-opacity="1" fill-rule="nonzero"/></g><g clip-path="url(#f18e5ee7c4)"><path fill="#07beb8" d="M 365.921875 68.21875 L 365.921875 8.398438 L 7.4375 8.398438 L 7.4375 367.1875 L 365.921875 367.1875 L 365.921875 307.367188 L 345.941406 307.367188 L 345.941406 347.191406 L 27.414062 347.191406 L 27.414062 28.394531 L 345.941406 28.394531 L 345.941406 68.21875 Z M 365.921875 68.21875 " fill-opacity="1" fill-rule="nonzero"/></g></svg>