<svg xmlns="http://www.w3.org/2000/svg" xmlns:xlink="http://www.w3.org/1999/xlink" width="500" zoomAndPan="magnify" viewBox="0 0 375 374.999991" height="500" preserveAspectRatio="xMidYMid meet" version="1.0"><defs><clipPath id="622da4b7e8"><path d="M 100.304688 75.246094 L 283.085938 75.246094 L 283.085938 299.761719 L 100.304688 299.761719 Z M 100.304688 75.246094 " clip-rule="nonzero"/></clipPath><clipPath id="e12f02aee4"><path d="M 4 6.007812 L 369 6.007812 L 369 368.859375 L 4 368.859375 Z M 4 6.007812 " clip-rule="nonzero"/></clipPath></defs><g clip-path="url(#622da4b7e8)"><path fill="#ffffff" d="M 149.441406 96.609375 C 144.917969 96.609375 141.835938 97.570312 140.191406 99.488281 C 138.546875 101.402344 137.722656 104.964844 137.722656 110.167969 L 137.722656 137.488281 L 160.339844 137.488281 L 160.339844 158.851562 L 137.722656 158.851562 L 137.722656 251.695312 L 114.285156 251.695312 L 114.285156 158.851562 L 100.304688 158.851562 L 100.304688 137.488281 L 114.285156 137.488281 L 114.285156 103.183594 C 114.285156 93.460938 116.722656 86.367188 121.605469 81.902344 C 126.457031 77.464844 134.226562 75.246094 144.917969 75.246094 C 149.71875 75.246094 154.855469 75.863281 160.339844 77.097656 L 160.339844 97.84375 C 157.050781 97.023438 153.417969 96.609375 149.441406 96.609375 Z M 259.648438 137.488281 L 283.085938 137.488281 L 283.085938 299.761719 L 259.648438 299.761719 L 259.648438 242.042969 C 249.09375 250.804688 238.265625 255.1875 227.164062 255.1875 C 211.671875 255.1875 199.269531 250.011719 189.949219 239.660156 C 180.625 229.332031 175.964844 214.3125 175.964844 194.589844 C 175.964844 175.007812 180.625 160.042969 189.949219 149.6875 C 199.269531 139.363281 211.671875 134.199219 227.164062 134.199219 C 238.265625 134.199219 249.09375 138.582031 259.648438 147.347656 Z M 231.070312 233.824219 C 240.527344 233.824219 250.054688 229.992188 259.648438 222.320312 L 259.648438 167.066406 C 250.054688 159.398438 240.527344 155.5625 231.070312 155.5625 C 220.925781 155.5625 213.277344 158.878906 208.125 165.503906 C 202.996094 172.160156 200.433594 181.855469 200.433594 194.589844 C 200.433594 207.464844 202.996094 217.214844 208.125 223.84375 C 213.277344 230.496094 220.925781 233.824219 231.070312 233.824219 Z M 231.070312 233.824219 " fill-opacity="1" fill-rule="nonzero"/></g><g clip-path="url(#e12f02aee4)"><path fill="#ffffff" d="M 368.472656 66.429688 L 368.472656 5.859375 L 4.835938 5.859375 L 4.835938 369.152344 L 368.472656 369.152344 L 368.472656 308.578125 L 348.207031 308.578125 L 348.207031 348.902344 L 25.101562 348.902344 L 25.101562 26.105469 L 348.207031 26.105469 L 348.207031 66.429688 Z M 368.472656 66.429688 " fill-opacity="1" fill-rule="nonzero"/></g></svg>